<svg width="100" height="100" viewBox="0 0 100 100" fill="none" xmlns="http://www.w3.org/2000/svg">
<path fill-rule="evenodd" clip-rule="evenodd" d="M75.9161 24.1764C76.0715 36.1417 75.9658 47.6259 75.9535 59.4286C75.3622 60.2633 74.5688 60.9001 73.825 61.5855C70.3484 65.1175 66.7243 68.5044 63.2196 72.0075C62.0212 73.1881 60.7573 74.456 59.5221 75.6641C59.3934 75.7909 59.1704 76.1171 58.9244 75.9565C58.9316 68.5692 58.7791 61.0607 58.9244 53.9059C58.9992 50.2295 58.9244 46.725 58.9244 42.9352C58.9244 42.2653 59.0121 41.5453 58.7747 40.924C47.4716 40.6782 35.8167 40.9184 24.0086 40.7775C23.9438 40.4908 24.2618 40.3464 24.4193 40.1921C27.0665 37.5999 29.6691 35.0146 32.3732 32.3667C33.7637 31.0058 35.1254 29.7307 36.5929 28.1613C37.5611 27.1258 38.7027 26.1318 39.8041 25.0534C40.1925 24.6737 40.6558 24.1221 41.1111 24.0658C42.4563 23.8988 44.0137 24.1024 45.4804 24.1024C55.2176 24.1031 65.9028 24.0418 75.9161 24.1764Z" fill="url(#paint0_linear_121_15)"/>
<defs>
<linearGradient id="paint0_linear_121_15" x1="40.7097" y1="55.7289" x2="81.3141" y2="16.5457" gradientUnits="userSpaceOnUse">
<stop stop-color="#A100FF"/>
<stop offset="1" stop-color="#A42E94"/>
</linearGradient>
</defs>
</svg>
